<svg xmlns="http://www.w3.org/2000/svg" viewBox="0 0 511.999 511.999" style="fill:#9163fe" xml:space="preserve"><path style="fill:#9795ef" d="M86.251 19.503h96.85v101.816h-96.85z"/><path style="fill:#BDA8E3" d="m202.608 256.66 53.389 53.389 53.39-53.39V135.228L202.608 32.642z" /><path transform="rotate(45.001 358.4 310.726)" style="fill:#D9B4DA" d="M305.003 238.798h106.782V382.66H305.003z"/><path d="m467.706 290.72-89.296-89.294c-3.809-3.808-9.983-3.808-13.791 0l-35.729 35.73V131.073a9.7 9.7 0 0 0-1.203-4.691c-.022-.039-.048-.075-.07-.114a9.519 9.519 0 0 0-.429-.694c-.061-.09-.13-.173-.195-.26-.124-.169-.247-.338-.381-.498-.085-.101-.177-.195-.267-.293-.126-.139-.252-.28-.387-.411-.022-.022-.042-.047-.065-.069L199.613 2.72c-.039-.038-.083-.065-.124-.101a10.028 10.028 0 0 0-.872-.722c-.062-.046-.124-.095-.187-.14a9.855 9.855 0 0 0-1.086-.657c-.066-.034-.134-.064-.202-.098a9.6 9.6 0 0 0-1.043-.438c-.064-.022-.125-.048-.189-.069a10.022 10.022 0 0 0-1.229-.319c-.079-.016-.157-.023-.237-.036a9.777 9.777 0 0 0-1.021-.112c-.117-.007-.234-.016-.351-.018-.069-.001-.141-.01-.215-.01H76.506a9.75 9.75 0 0 0-9.751 9.751v121.323c0 5.385 4.365 9.751 9.751 9.751h106.6v96.332l-35.73-35.73c-3.81-3.808-9.983-3.808-13.791 0l-89.294 89.294c-3.808 3.808-3.808 9.981 0 13.79l49.937 49.937c3.808 3.807 9.981 3.808 13.791 0 3.808-3.808 3.808-9.981 0-13.79l-43.042-43.042 75.503-75.503 190.843 190.841-75.503 75.503-98.39-98.39c-3.809-3.808-9.981-3.808-13.791 0-3.808 3.808-3.808 9.981 0 13.79l105.286 105.285a9.755 9.755 0 0 0 6.896 2.856c.06 0 .12-.008.179-.009.06.001.12.009.179.009a9.756 9.756 0 0 0 6.896-2.856L467.709 304.51a9.752 9.752 0 0 0-.003-13.79zM345.293 399.343l-75.505-75.503 101.727-101.727 75.505 75.503-101.727 101.727zM86.258 19.503h96.848v101.82H86.258V19.503zm116.35 13.139 106.779 102.586V256.66l-53.39 53.39-53.389-53.389V32.642z"/><path style="fill:#9795ef" d="m157.429 390.068 98.39 98.39 75.503-75.503L140.48 222.112l-75.503 75.503 43.042 43.042c3.808 3.808 3.808 9.983 0 13.79l35.619 35.619c3.809-3.807 9.981-3.807 13.791.002z"/></svg>