<svg width="25" height="24" viewBox="0 0 25 24" fill="none" xmlns="http://www.w3.org/2000/svg">
<g id="Frame">
<path id="Vector" d="M22.4648 10.44L21.4848 14.62C20.6448 18.23 18.9848 19.69 15.8648 19.39C15.3648 19.35 14.8248 19.26 14.2448 19.12L12.5648 18.72C8.39474 17.73 7.10475 15.67 8.08475 11.49L9.06475 7.30001C9.26475 6.45001 9.50475 5.71001 9.80475 5.10001C10.9748 2.68001 12.9648 2.03001 16.3048 2.82001L17.9748 3.21001C22.1648 4.19001 23.4448 6.26001 22.4648 10.44Z" fill="#00A3FF"/>
<path id="Vector_2" d="M15.8649 19.3901C15.2449 19.8101 14.4649 20.1601 13.5149 20.4701L11.9349 20.9901C7.96491 22.2701 5.87491 21.2001 4.58491 17.2301L3.30491 13.2801C2.02491 9.3101 3.08491 7.2101 7.05491 5.9301L8.63491 5.4101C9.04491 5.2801 9.43491 5.1701 9.80491 5.1001C9.50491 5.7101 9.26491 6.4501 9.06491 7.3001L8.08491 11.4901C7.10491 15.6701 8.39491 17.7301 12.5649 18.7201L14.2449 19.1201C14.8249 19.2601 15.3649 19.3501 15.8649 19.3901Z" fill="#00B3FF" fill-opacity="0.19"/>
<path id="Vector_3" d="M18.295 10.5098C18.235 10.5098 18.175 10.4998 18.105 10.4898L13.255 9.25978C12.855 9.15978 12.615 8.74978 12.715 8.34978C12.815 7.94978 13.225 7.70978 13.625 7.80978L18.475 9.03978C18.875 9.13978 19.115 9.54978 19.015 9.94978C18.935 10.2798 18.625 10.5098 18.295 10.5098Z" fill="white"/>
<path id="Vector_4" d="M15.3647 13.8899C15.3047 13.8899 15.2447 13.8799 15.1747 13.8699L12.2647 13.1299C11.8647 13.0299 11.6247 12.6199 11.7247 12.2199C11.8247 11.8199 12.2347 11.5799 12.6347 11.6799L15.5447 12.4199C15.9447 12.5199 16.1847 12.9299 16.0847 13.3299C16.0047 13.6699 15.7047 13.8899 15.3647 13.8899Z" fill="white"/>
</g>
</svg>
