<svg width="63" height="60" viewBox="0 0 63 60" fill="none" xmlns="http://www.w3.org/2000/svg">
<g id="Group 1013">
<path id="Vector" d="M31.7396 17.2484C32.8681 16.2093 34.5309 16.113 35.6593 17.1521L38.8855 20.1318C39.7256 20.9025 40.7372 20.9071 41.3262 20.2625C41.7189 19.8358 41.5648 18.5215 41.453 17.6865L39.8374 5.41457C39.6883 4.31812 40.5383 3.26067 41.7264 3.12534C42.9145 2.99459 43.9956 3.83642 44.1373 4.93287L45.9244 14.5715C46.0164 14.8124 46.2202 14.8537 46.2425 14.5302L46.8465 2.00136C46.8465 1.47057 47.075 0.961514 47.4817 0.586185C47.8884 0.210857 48.44 0 49.0151 0C49.5903 0 50.1419 0.210857 50.5485 0.586185C50.9552 0.961514 51.1837 1.47057 51.1837 2.00136L51.226 14.6243C51.216 14.7711 51.3527 14.8124 51.3751 14.6449L53.3038 4.79295C53.5151 3.70567 54.646 2.92119 55.8241 3.11845C57.0023 3.31343 57.7827 4.41676 57.5714 5.50403L55.854 17.0328C55.854 17.2392 55.926 17.3585 56.0329 17.097L58.593 10.7707C58.9932 9.72926 60.2334 9.12369 61.3618 9.49299C62.4903 9.86459 63.0793 11.0689 62.6792 12.1102L58.1879 25.6553L58.1133 25.8755L58.1033 25.903L58.1009 25.9122C57.4758 27.6819 56.2602 29.2238 54.628 30.3172C52.9958 31.4107 51.0307 31.9997 49.0139 32C46.2371 31.9802 43.5409 31.1366 41.3237 29.5938C39.0023 28.3024 31.5681 20.93 31.5681 20.93C30.4422 19.8817 30.6137 18.2875 31.7396 17.2484Z" fill="url(#paint0_linear_456_9737)"/>
<path id="Vector_2" d="M40.6065 41.5605C39.1607 40.2616 37.0303 40.1412 35.5845 41.4401L31.4509 45.1647C30.3745 46.1281 29.0784 46.1338 28.3237 45.3281C27.8205 44.7948 28.018 43.1519 28.1613 42.1082L30.2312 26.7682C30.4223 25.3977 29.3332 24.0758 27.811 23.9067C26.2888 23.7432 24.9035 24.7955 24.722 26.1661L22.4323 38.2144C22.3145 38.5155 22.0533 38.5671 22.0247 38.1628L21.2508 22.5017C21.2508 21.8382 20.9581 21.2019 20.437 20.7327C19.9159 20.2636 19.2092 20 18.4723 20C17.7354 20 17.0287 20.2636 16.5076 20.7327C15.9865 21.2019 15.6938 21.8382 15.6938 22.5017L15.6396 38.2803C15.6524 38.4639 15.4772 38.5155 15.4486 38.3062L12.9774 25.9912C12.7067 24.6321 11.2577 23.6515 9.74823 23.8981C8.23876 24.1418 7.23881 25.5209 7.5095 26.88L9.71002 41.291C9.71002 41.549 9.61767 41.6981 9.48073 41.3713L6.20065 33.4633C5.68793 32.1616 4.09885 31.4046 2.65306 31.8662C1.20728 32.3307 0.452538 33.8361 0.965251 35.1378L6.71973 52.0691L6.81526 52.3444L6.828 52.3788L6.83119 52.3902C7.63209 54.6023 9.18957 56.5297 11.2808 57.8965C13.372 59.2634 15.8898 59.9996 18.4739 60C22.0316 59.9753 25.4861 58.9207 28.3269 56.9922C31.3013 55.3779 40.8262 46.1625 40.8262 46.1625C42.2688 44.8522 42.0491 42.8594 40.6065 41.5605Z" fill="url(#paint1_linear_456_9737)"/>
</g>
<defs>
<linearGradient id="paint0_linear_456_9737" x1="54.8046" y1="7.52941" x2="40.7922" y2="30.1" gradientUnits="userSpaceOnUse">
<stop stop-color="white" stop-opacity="0.4"/>
<stop offset="0.971823" stop-color="white" stop-opacity="0"/>
</linearGradient>
<linearGradient id="paint1_linear_456_9737" x1="21.3046" y1="20" x2="21.3046" y2="60" gradientUnits="userSpaceOnUse">
<stop offset="0.267794" stop-color="white"/>
<stop offset="1" stop-color="white" stop-opacity="0.13"/>
</linearGradient>
</defs>
</svg>
