<svg width="63" height="62" viewBox="0 0 63 62" fill="none" xmlns="http://www.w3.org/2000/svg">
<g id="Group 1014">
<path id="Vector" d="M62.8056 20.1338C62.8056 30.1844 55.496 38.4728 45.9349 40.0065C45.9349 39.9739 45.9349 39.9739 45.9349 39.9413C44.9886 27.7696 35.1338 17.8496 22.7991 16.8706C24.3328 7.30951 32.6212 0 42.6718 0C53.7992 0 62.8056 9.00636 62.8056 20.1338Z" fill="url(#paint0_linear_456_9746)"/>
<path id="Vector_2" d="M24.6588 38.1785C24.6588 37.689 24.1041 36.9385 23.4188 36.9385H16.6967V39.3859H23.4188C24.1041 39.4185 24.6588 38.8638 24.6588 38.1785Z" fill="white"/>
<path id="Vector_3" d="M24.7241 44.3142H23.4188H16.6967V46.7616H24.7567C25.8008 46.7616 26.5187 46.109 26.5187 45.5216C26.5187 44.9342 25.7682 44.3142 24.7241 44.3142Z" fill="url(#paint1_linear_456_9746)"/>
<path id="Vector_4" d="M41.0395 40.2999C40.289 30.4125 32.3921 22.5156 22.5047 21.7651C21.9826 21.7324 21.4931 21.6998 20.9384 21.6998C9.81093 21.6998 0.804565 30.7062 0.804565 41.8662C0.804565 52.9936 9.81093 62 20.9384 62C32.0658 62 41.1048 52.9936 41.1048 41.8662C41.1048 41.3115 41.0721 40.822 41.0395 40.2999ZM24.7236 51.6557H22.5699V52.8957C22.5699 54.2337 21.4605 55.3431 20.1226 55.3431C18.7847 55.3431 17.6752 54.2337 17.6752 52.8957V51.6557H14.2488C12.9109 51.6557 11.8015 50.5463 11.8015 49.2084V41.8662V34.5241C11.8015 33.1862 12.9109 32.0767 14.2488 32.0767H17.6752V30.8367C17.6752 29.4988 18.7847 28.3893 20.1226 28.3893C21.4605 28.3893 22.5699 29.4988 22.5699 30.8367V32.0767H23.4184C26.6815 32.0767 29.5531 34.9483 29.5531 38.2115C29.5531 39.1578 29.3247 40.0388 28.9331 40.8546C30.4342 41.9641 31.3805 43.661 31.3805 45.5536C31.3805 48.9147 28.411 51.6557 24.7236 51.6557Z" fill="url(#paint2_linear_456_9746)"/>
</g>
<defs>
<linearGradient id="paint0_linear_456_9746" x1="62.8056" y1="-8.65006" x2="39.0179" y2="24.8689" gradientUnits="userSpaceOnUse">
<stop stop-color="white" stop-opacity="0.77"/>
<stop offset="1" stop-color="white" stop-opacity="0"/>
</linearGradient>
<linearGradient id="paint1_linear_456_9746" x1="21.6077" y1="44.5924" x2="21.6077" y2="46.7616" gradientUnits="userSpaceOnUse">
<stop stop-color="white" stop-opacity="0.79"/>
<stop offset="1" stop-color="white" stop-opacity="0.45"/>
</linearGradient>
<linearGradient id="paint2_linear_456_9746" x1="20.8046" y1="22" x2="20.8046" y2="62" gradientUnits="userSpaceOnUse">
<stop stop-color="white"/>
<stop offset="1" stop-color="white" stop-opacity="0"/>
</linearGradient>
</defs>
</svg>
