<svg width="22" height="19" viewBox="0 0 22 19" fill="none" xmlns="http://www.w3.org/2000/svg">
<path d="M8.04501 4.22506C8.04206 6.02512 6.58043 7.48198 4.78037 7.47903C2.9803 7.47608 1.52345 6.01445 1.5264 4.21438C1.52935 2.41432 2.99098 0.957468 4.79104 0.960417C6.59111 0.963366 8.04796 2.425 8.04501 4.22506Z" stroke="black" stroke-width="1.62965" stroke-linecap="round" stroke-linejoin="round"/>
<path d="M8.90674 4.72461L19.4669 4.74191" stroke="black" stroke-width="1.87335" stroke-linecap="round" stroke-linejoin="round"/>
<path d="M13.7362 14.0024C13.7392 15.8025 15.2008 17.2593 17.0009 17.2564C18.8009 17.2534 20.2578 15.7918 20.2549 13.9917C20.2519 12.1917 18.7903 10.7348 16.9902 10.7378C15.1901 10.7407 13.7333 12.2023 13.7362 14.0024Z" stroke="black" stroke-width="1.62965" stroke-linecap="round" stroke-linejoin="round"/>
<path d="M12.8926 14.4939L2.33476 14.4937" stroke="black" stroke-width="1.87335" stroke-linecap="round" stroke-linejoin="round"/>
</svg>
