<svg width="105" height="71" viewBox="0 0 105 71" fill="none" xmlns="http://www.w3.org/2000/svg">
<path id="Vector" d="M103.716 4.57565C101.13 0.0482817 93.4609 -0.814914 81.532 2.07415C76.2879 3.34252 70.489 5.2715 64.4038 7.74658C56.4303 4.70778 47.7319 4.85751 39.8747 8.19579C31.937 11.5693 25.7981 17.779 22.6033 25.6887C20.9925 29.6788 20.2318 33.8538 20.3034 38.0201C16.8133 40.8034 13.6723 43.578 10.9697 46.2821C2.36976 54.9052 -0.789218 61.8372 1.85072 66.3382C4.49065 70.8391 12.1688 71.6142 24.062 68.593C33.9058 66.0915 45.6915 61.2295 57.6294 54.7819C58.408 54.3591 59.3297 54.2887 60.153 54.6058C61.2537 55.0285 62.3097 55.7772 63.4999 56.8871L65.6298 59.4326L64.4574 56.341C63.5268 52.5535 64.0905 50.4836 66.82 47.6562L69.4062 45.5598L66.2741 46.7225C62.426 47.6385 60.323 47.0836 57.4504 44.3972L55.3206 41.8516L56.4929 44.9433C56.9851 46.9515 57.0567 48.4753 56.6092 49.8934C56.3855 50.5981 55.8665 51.1706 55.2043 51.5229C48.761 54.9845 42.3804 57.9617 36.3578 60.331C32.1965 57.4596 28.7691 53.4607 26.6124 48.5282C20.4019 34.3559 27.042 17.9111 41.4408 11.7983C34.2459 14.8547 30.9258 23.0727 34.0311 30.1632C37.1364 37.245 45.4857 40.5128 52.6896 37.4564C59.9919 34.3559 68.4934 37.7646 71.4824 45.0754C74.4445 52.3156 70.5069 60.5689 63.133 63.4491C57.6652 65.5807 51.8931 65.9242 46.5238 64.7351C44.6177 65.5807 42.7384 66.3822 40.8949 67.1309C44.7161 68.6019 48.7073 69.3417 52.6986 69.3417C57.0477 69.3417 61.3969 68.4697 65.5134 66.7169C79.2411 60.8859 86.794 46.7577 84.7268 32.8409C88.3332 30.0487 91.5727 27.2566 94.3558 24.526C103.063 16.0086 106.303 9.10303 103.716 4.57565ZM31.9818 61.9693C28.8675 63.0704 25.8697 63.9952 23.0418 64.7175C11.8467 67.5625 6.57575 66.391 5.3766 64.3387C4.17744 62.2864 5.7793 57.2042 13.8781 49.0919C15.9274 47.0396 18.2362 44.9521 20.7688 42.8381C21.1983 45.2956 21.9321 47.7266 22.9612 50.0784C25.0195 54.7643 28.1069 58.8072 31.9818 61.9693ZM83.7603 28.4809C83.3934 27.2566 82.9549 26.041 82.4269 24.8343C80.3686 20.1484 77.2813 16.0967 73.3974 12.9346C68.6813 14.6081 63.6789 16.6956 58.5422 19.1443C57.2446 19.7608 56.2065 20.809 55.6249 22.1038C54.5599 24.482 54.5599 26.9659 55.4101 30.4187L57.1462 34.9813L54.0051 31.229C49.7723 27.2654 46.667 26.4462 40.9933 27.7938L36.3578 29.5026L40.17 26.411C44.1971 22.2447 45.0293 19.1883 43.6601 13.604L41.924 9.03256L45.0651 12.7848C47.5171 15.0837 49.5843 16.3169 52.0005 16.6956C53.2176 16.8806 54.4615 16.6428 55.5712 16.1143C60.2962 13.8242 64.9317 11.8159 69.3704 10.1424C69.3615 10.1336 69.3525 10.1336 69.3436 10.1248C73.997 8.36314 78.4267 6.95385 82.4985 5.96734C93.7294 3.24563 98.9824 4.47876 100.164 6.53986C101.345 8.60096 99.6804 13.6656 91.4832 21.6898C89.2102 23.9183 86.615 26.1996 83.7603 28.4809Z" fill="#3F3F3F"/>
</svg>
