<svg width="202" height="145" viewBox="0 0 202 145" fill="none" xmlns="http://www.w3.org/2000/svg">
<path fill-rule="evenodd" clip-rule="evenodd" d="M151.216 7.65755C151.216 5.89424 150.515 4.20296 149.266 2.95482C148.018 1.70668 146.324 1.00364 144.557 1H107.894C106.125 1 104.427 1.70142 103.176 2.94995C101.924 4.19849 101.221 5.89186 101.221 7.65755V42.8298C101.225 44.5931 101.929 46.283 103.181 47.5285C104.432 48.7741 106.127 49.4736 107.894 49.4736H144.143C145.026 49.4364 145.906 49.5953 146.72 49.9387C147.534 50.2822 148.262 50.8016 148.85 51.4596C149.439 52.1177 149.873 52.8978 150.122 53.7437C150.372 54.5896 150.43 55.4803 150.292 56.3513C146.156 76.5853 129.155 92.2938 107.881 95.0449C106.101 95.2201 104.446 96.0331 103.221 97.3332C101.996 98.6333 101.286 100.332 101.221 102.115V137.287C101.207 138.155 101.371 139.017 101.705 139.819C102.038 140.621 102.532 141.347 103.158 141.95C103.784 142.554 104.527 143.023 105.342 143.328C106.156 143.633 107.025 143.768 107.894 143.725C157.738 140.547 197.613 101.95 200.991 53.6552C201.038 52.7883 200.906 51.9209 200.602 51.1072C200.299 50.2935 199.83 49.5511 199.226 48.9263C198.621 48.3015 197.894 47.8077 197.09 47.4759C196.286 47.144 195.422 46.9812 194.552 46.9977H157.889C156.12 46.9977 154.422 46.2962 153.171 45.0477C151.919 43.7992 151.216 42.1058 151.216 40.3401V7.65755Z" fill="black"/>
<path fill-rule="evenodd" clip-rule="evenodd" d="M50.9959 137.342C50.9959 139.105 50.2947 140.797 49.0462 142.045C47.7977 143.293 46.1039 143.996 44.3364 144H7.66045C5.89296 143.996 4.19912 143.293 2.9506 142.045C1.70208 140.797 1.00085 139.105 1.00086 137.342V102.17C1.00086 100.408 1.70253 98.7179 2.95144 97.472C4.20035 96.226 5.89423 95.526 7.66045 95.526H43.9227C44.8119 95.5627 45.698 95.401 46.5166 95.0528C47.3353 94.7046 48.0657 94.1786 48.6548 93.5131C49.2439 92.8477 49.6768 92.0596 49.922 91.2061C50.1672 90.3526 50.2185 89.4554 50.0721 88.5796C47.9205 78.5268 42.6753 69.3953 35.0692 62.4607C27.4631 55.5261 17.8759 51.1347 7.64665 49.8998C5.86953 49.7214 4.21729 48.907 2.99554 47.6073C1.77379 46.3075 1.0652 44.6103 1.00086 42.8296V7.65731C0.986554 6.78921 1.15114 5.92746 1.48433 5.12538C1.81752 4.32331 2.31225 3.59803 2.93789 2.99451C3.56353 2.39098 4.30674 1.92206 5.12146 1.6168C5.93618 1.31153 6.80506 1.17642 7.67425 1.21985C57.5176 4.41108 97.3647 42.9947 100.77 91.2894C100.818 92.1564 100.686 93.0238 100.382 93.8374C100.078 94.6511 99.6098 95.3935 99.0055 96.0184C98.4012 96.6432 97.6742 97.1369 96.8699 97.4688C96.0657 97.8006 95.2015 97.9634 94.3314 97.947H57.6693C55.9018 97.947 54.2065 98.6465 52.9554 99.8921C51.7043 101.138 50.9996 102.827 50.9959 104.591V137.342Z" fill="black"/>
</svg>
