<svg width="24" height="25" viewBox="0 0 24 25" fill="none" xmlns="http://www.w3.org/2000/svg">
<g id="Frame">
<g id="Group 1211">
<path id="Vector" d="M11.3655 12.5C13.8507 12.5 15.8655 10.4853 15.8655 8C15.8655 5.51472 13.8507 3.5 11.3655 3.5C8.8802 3.5 6.86548 5.51472 6.86548 8C6.86548 10.4853 8.8802 12.5 11.3655 12.5Z" stroke="#1A1323" stroke-width="2" stroke-linecap="round" stroke-linejoin="round"/>
<path id="Vector_2" d="M3.63452 21.5C3.63452 18.017 7.09951 15.2 11.3656 15.2C12.2296 15.2 13.4561 15.4035 14.2391 15.6195" stroke="#1A1323" stroke-width="2" stroke-linecap="round" stroke-linejoin="round"/>
<path id="Vector_3" d="M21.2479 18.133C21.2479 18.808 21.0589 19.447 20.7259 19.987C20.5369 20.311 20.2939 20.599 20.0149 20.833C19.3849 21.4 18.5569 21.733 17.6479 21.733C16.3339 21.733 15.1909 21.031 14.5699 19.987C14.2369 19.447 14.0479 18.808 14.0479 18.133C14.0479 16.999 14.5699 15.982 15.3979 15.325C16.0189 14.83 16.8019 14.533 17.6479 14.533C19.6369 14.533 21.2479 16.144 21.2479 18.133Z" stroke="#1A1323" stroke-width="1.5" stroke-miterlimit="10" stroke-linecap="round" stroke-linejoin="round"/>
<path id="Vector_4" d="M16.2439 18.133L17.1349 19.024L19.0519 17.251" stroke="#1A1323" stroke-linecap="round" stroke-linejoin="round"/>
</g>
</g>
</svg>
