<svg width="37" height="37" viewBox="0 0 37 37" fill="none" xmlns="http://www.w3.org/2000/svg">
<g id="Group 1176">
<rect id="Rectangle 2220" x="0.489746" y="0.449036" width="36" height="36" rx="12" fill="url(#paint0_linear_561_3876)"/>
<g id="Frame">
<path id="Vector" d="M26.548 14.2406C26.0146 12.4323 24.5063 10.924 22.698 10.3906C21.323 9.99062 20.373 10.024 19.7146 10.5156C18.923 11.1073 18.8313 12.174 18.8313 12.9323V15.0073C18.8313 17.0573 19.7646 18.099 21.598 18.099H23.9896C24.7396 18.099 25.8146 18.0073 26.4063 17.2156C26.9146 16.5656 26.9563 15.6156 26.548 14.2406Z" fill="white" fill-opacity="0.66"/>
<path id="Vector_2" d="M24.248 19.5825C24.0313 19.3325 23.7147 19.1909 23.3897 19.1909H20.4063C18.9397 19.1909 17.748 17.9991 17.748 16.5325V13.5492C17.748 13.2242 17.6063 12.9075 17.3563 12.6908C17.1147 12.4742 16.7813 12.3742 16.4647 12.4158C14.5063 12.6658 12.7063 13.7408 11.5313 15.3575C10.348 16.9825 9.91466 18.9658 10.2897 20.9491C10.8313 23.8158 13.123 26.1075 15.998 26.6492C16.4563 26.7409 16.9147 26.7825 17.373 26.7825C18.8813 26.7825 20.3397 26.3158 21.5813 25.4075C23.198 24.2325 24.273 22.4325 24.523 20.4742C24.5647 20.1491 24.4647 19.8241 24.248 19.5825Z" fill="white"/>
</g>
</g>
<defs>
<linearGradient id="paint0_linear_561_3876" x1="18.4897" y1="0.449036" x2="18.4897" y2="36.449" gradientUnits="userSpaceOnUse">
<stop stop-color="#FFD749"/>
<stop offset="1" stop-color="#F9B617"/>
</linearGradient>
</defs>
</svg>
