<svg width="37" height="37" viewBox="0 0 37 37" fill="none" xmlns="http://www.w3.org/2000/svg">
<g id="Group 1177">
<rect id="Rectangle 2220" x="0.489746" y="0.449036" width="36" height="36" rx="12" fill="url(#paint0_linear_561_3877)"/>
<g id="Frame">
<path id="Vector" d="M21.9815 10.1157H14.9982C11.9648 10.1157 10.1565 11.924 10.1565 14.9574V21.9324C10.1565 24.974 11.9648 26.7824 14.9982 26.7824H21.9732C25.0065 26.7824 26.8148 24.974 26.8148 21.9407V14.9574C26.8232 11.924 25.0148 10.1157 21.9815 10.1157ZM16.7482 21.9407C16.7482 22.474 16.3148 22.9074 15.7732 22.9074C15.2398 22.9074 14.8065 22.474 14.8065 21.9407V19.224C14.8065 18.6907 15.2398 18.2574 15.7732 18.2574C16.3148 18.2574 16.7482 18.6907 16.7482 19.224V21.9407ZM22.1732 21.9407C22.1732 22.474 21.7398 22.9074 21.2065 22.9074C20.6648 22.9074 20.2315 22.474 20.2315 21.9407V14.9574C20.2315 14.424 20.6648 13.9907 21.2065 13.9907C21.7398 13.9907 22.1732 14.424 22.1732 14.9574V21.9407Z" fill="white"/>
<rect id="Rectangle 2221" x="14.7498" y="18.2129" width="2.22046" height="4.99615" rx="1.11023" fill="white" fill-opacity="0.66"/>
</g>
</g>
<defs>
<linearGradient id="paint0_linear_561_3877" x1="18.4897" y1="0.449036" x2="18.4897" y2="36.449" gradientUnits="userSpaceOnUse">
<stop stop-color="#FF94E1"/>
<stop offset="1" stop-color="#FF7193"/>
</linearGradient>
</defs>
</svg>
