<svg width="24" height="25" viewBox="0 0 24 25" fill="none" xmlns="http://www.w3.org/2000/svg">
<g id="Frame">
<path id="Vector" d="M9.5999 2.69108H14.3999C19.1999 2.69108 21.5999 5.09108 21.5999 9.89108V14.6911C21.5999 19.4911 19.1999 21.8911 14.3999 21.8911H9.5999C4.7999 21.8911 2.3999 19.4911 2.3999 14.6911V9.89108C2.3999 5.09108 4.7999 2.69108 9.5999 2.69108Z" fill="#E3D8F6"/>
<path id="Vector_2" d="M7.75705 10.4509H9.04276C9.61419 10.4509 9.8999 10.7709 9.8999 11.4109V14.2909C9.8999 14.9309 9.61419 15.2509 9.04276 15.2509H7.75705C7.18562 15.2509 6.8999 14.9309 6.8999 14.2909V11.4109C6.8999 10.7709 7.18562 10.4509 7.75705 10.4509Z" fill="#A17FFA"/>
<path id="Vector_3" d="M11.3571 6.85091H12.6429C13.2143 6.85091 13.5 7.17091 13.5 7.81091V14.2909C13.5 14.9309 13.2143 15.2509 12.6429 15.2509H11.3571C10.7857 15.2509 10.5 14.9309 10.5 14.2909V7.81091C10.5 7.17091 10.7857 6.85091 11.3571 6.85091Z" fill="#854BFF"/>
<path id="Vector_4" d="M17.5 16.7937V17.1687C17.5 17.5437 17.25 17.7312 16.75 17.7312H7.25C6.75 17.7312 6.5 17.5437 6.5 17.1687V16.7937C6.5 16.4187 6.75 16.2312 7.25 16.2312H16.75C17.25 16.2312 17.5 16.4187 17.5 16.7937Z" fill="#A17FFA"/>
<path id="Vector_5" d="M14.9568 9.01091H16.2425C16.8139 9.01091 17.0996 9.33091 17.0996 9.97091V14.2909C17.0996 14.9309 16.8139 15.2509 16.2425 15.2509H14.9568C14.3853 15.2509 14.0996 14.9309 14.0996 14.2909V9.97091C14.0996 9.33091 14.3853 9.01091 14.9568 9.01091Z" fill="#A17FFA"/>
</g>
</svg>
