<svg xmlns="http://www.w3.org/2000/svg" width="12" height="12" viewBox="0 0 12 12" fill="none">
    <g clip-path="url(#clip0_613_2212)">
        <path
            d="M9.1363 11.182H2.86357C2.3213 11.1813 1.80145 10.9655 1.41801 10.5821C1.03457 10.1987 0.818837 9.67881 0.818115 9.13654V2.86381C0.818837 2.32155 1.03457 1.8017 1.41801 1.41826C1.80145 1.03482 2.3213 0.819081 2.86357 0.818359H5.99993C6.10843 0.818359 6.21249 0.86146 6.28921 0.938179C6.36592 1.0149 6.40903 1.11895 6.40903 1.22745C6.40903 1.33595 6.36592 1.44 6.28921 1.51672C6.21249 1.59344 6.10843 1.63654 5.99993 1.63654H2.86357C2.5383 1.63726 2.22656 1.76679 1.99655 1.9968C1.76655 2.2268 1.63702 2.53854 1.6363 2.86381V9.13654C1.63702 9.46181 1.76655 9.77356 1.99655 10.0036C2.22656 10.2336 2.5383 10.3631 2.86357 10.3638H9.1363C9.46157 10.3631 9.77331 10.2336 10.0033 10.0036C10.2333 9.77356 10.3629 9.46181 10.3636 9.13654V6.00018C10.3636 5.89168 10.4067 5.78763 10.4834 5.71091C10.5601 5.63419 10.6642 5.59109 10.7727 5.59109C10.8812 5.59109 10.9852 5.63419 11.0619 5.71091C11.1387 5.78763 11.1818 5.89168 11.1818 6.00018V9.13654C11.181 9.67881 10.9653 10.1987 10.5819 10.5821C10.1984 10.9655 9.67857 11.1813 9.1363 11.182Z"
            fill="#1A1323" />
        <path
            d="M5.86373 6.54519C5.75533 6.5448 5.65145 6.50168 5.57464 6.42519C5.53638 6.3874 5.506 6.34238 5.48527 6.29276C5.46453 6.24313 5.45386 6.18988 5.45386 6.1361C5.45386 6.08232 5.46453 6.02907 5.48527 5.97945C5.506 5.92982 5.53638 5.88481 5.57464 5.84701L10.4837 0.937921C10.5613 0.865659 10.6638 0.826319 10.7698 0.828189C10.8758 0.830059 10.9769 0.872993 11.0519 0.947945C11.1268 1.0229 11.1698 1.12402 11.1716 1.23C11.1735 1.33598 11.1342 1.43855 11.0619 1.5161L6.15282 6.42519C6.07601 6.50168 5.97213 6.5448 5.86373 6.54519Z"
            fill="#1A1323" />
        <path
            d="M10.7728 1.63654H8.59098C8.48248 1.63654 8.37842 1.59344 8.3017 1.51672C8.22498 1.44 8.18188 1.33595 8.18188 1.22745C8.18188 1.11895 8.22498 1.0149 8.3017 0.938179C8.37842 0.86146 8.48248 0.818359 8.59098 0.818359H10.7728C10.8813 0.818359 10.9853 0.86146 11.0621 0.938179C11.1388 1.0149 11.1819 1.11895 11.1819 1.22745C11.1819 1.33595 11.1388 1.44 11.0621 1.51672C10.9853 1.59344 10.8813 1.63654 10.7728 1.63654Z"
            fill="#1A1323" />
        <path
            d="M10.7726 3.81836C10.6641 3.81836 10.5601 3.77526 10.4833 3.69854C10.4066 3.62182 10.3635 3.51777 10.3635 3.40927V1.22745C10.3635 1.11895 10.4066 1.0149 10.4833 0.938179C10.5601 0.86146 10.6641 0.818359 10.7726 0.818359C10.8811 0.818359 10.9852 0.86146 11.0619 0.938179C11.1386 1.0149 11.1817 1.11895 11.1817 1.22745V3.40927C11.1817 3.51777 11.1386 3.62182 11.0619 3.69854C10.9852 3.77526 10.8811 3.81836 10.7726 3.81836Z"
            fill="#1A1323" />
    </g>
    <defs>
        <clipPath id="clip0_613_2212">
            <rect width="12" height="12" fill="white" />
        </clipPath>
    </defs>
</svg>