<svg xmlns="http://www.w3.org/2000/svg" width="14" height="14" viewBox="0 0 14 14" fill="none">
    <path
        d="M6.97156 0.421875C3.33859 0.421875 0.393433 3.36672 0.393433 7C0.393433 10.6333 3.33859 13.5781 6.97156 13.5781C10.6045 13.5781 13.5497 10.6327 13.5497 7C13.5497 3.36734 10.6045 0.421875 6.97156 0.421875ZM6.97156 10.5222C6.8202 10.5219 6.67233 10.4767 6.54663 10.3924C6.42093 10.3081 6.32304 10.1884 6.26533 10.0485C6.20762 9.90855 6.19268 9.75465 6.2224 9.60624C6.25212 9.45783 6.32516 9.32155 6.43229 9.21463C6.53943 9.10772 6.67585 9.03495 6.82433 9.00554C6.9728 8.97612 7.12666 8.99137 7.26647 9.04937C7.40628 9.10736 7.52576 9.20549 7.60982 9.33137C7.69388 9.45724 7.73875 9.6052 7.73875 9.75656C7.73875 9.85724 7.71889 9.95692 7.68032 10.0499C7.64174 10.1429 7.58521 10.2274 7.51395 10.2985C7.44269 10.3696 7.3581 10.426 7.26503 10.4644C7.17196 10.5027 7.07223 10.5224 6.97156 10.5222ZM7.73875 7.20625C7.73587 7.4078 7.65378 7.60013 7.51023 7.74164C7.36669 7.88316 7.17321 7.96249 6.97164 7.96249C6.77006 7.96249 6.57659 7.88316 6.43304 7.74164C6.28949 7.60013 6.2074 7.4078 6.20453 7.20625V3.635C6.2074 3.43345 6.28949 3.24112 6.43304 3.09961C6.57659 2.95809 6.77006 2.87876 6.97164 2.87876C7.17321 2.87876 7.36669 2.95809 7.51023 3.09961C7.65378 3.24112 7.73587 3.43345 7.73875 3.635V7.20625Z"
        fill="#9A9A9A" />
</svg>