<svg width="25" height="25" viewBox="0 0 25 25" fill="none" xmlns="http://www.w3.org/2000/svg">
<g id="Github">
<rect id="Rectangle 2182" x="0.663086" y="0.141235" width="24" height="24" rx="8" fill="white"/>
<path id="Vector" d="M12.6618 1.64124C6.86446 1.64124 2.16309 6.46132 2.16309 12.4074C2.16072 14.664 2.85283 16.8643 4.14159 18.6974C5.43036 20.5304 7.25061 21.9035 9.34509 22.6226C9.87009 22.7218 10.0617 22.3893 10.0617 22.1038C10.0617 21.8478 10.0525 21.1709 10.0473 20.2728C7.12696 20.9229 6.51009 18.8292 6.51009 18.8292C6.03365 17.5853 5.34459 17.2542 5.34459 17.2542C4.3904 16.5867 5.41546 16.6001 5.41546 16.6001C6.4694 16.6765 7.02328 17.71 7.02328 17.71C7.9604 19.3547 9.48159 18.8802 10.0801 18.604C10.1746 17.9084 10.4463 17.4339 10.7468 17.1644C8.41584 16.8923 5.96409 15.9688 5.96409 11.8444C5.96409 10.6688 6.37359 9.70778 7.04559 8.95447C6.93665 8.68237 6.57703 7.58726 7.14796 6.10612C7.14796 6.10612 8.02996 5.81659 10.0355 7.20927C10.8922 6.97016 11.7763 6.84846 12.6644 6.84736C13.5526 6.84916 14.4366 6.97131 15.2933 7.21061C17.2975 5.81793 18.1782 6.10746 18.1782 6.10746C18.7505 7.58994 18.3908 8.68371 18.2832 8.95581C18.9565 9.70912 19.3621 10.6702 19.3621 11.8457C19.3621 15.9809 16.9077 16.891 14.5688 17.1577C14.9455 17.4902 15.2815 18.147 15.2815 19.1509C15.2815 20.5905 15.2684 21.7513 15.2684 22.1038C15.2684 22.392 15.4574 22.7271 15.9903 22.6212C18.0827 21.9005 19.9007 20.5269 21.1877 18.6942C22.4746 16.8616 23.1656 14.6626 23.1631 12.4074C23.1631 6.46132 18.4617 1.64124 12.6618 1.64124Z" fill="#0D0C0F"/>
</g>
</svg>
