<svg width="11" height="16" viewBox="0 0 11 16" fill="none" xmlns="http://www.w3.org/2000/svg">
<g id="Subtract">
<mask id="path-1-inside-1_561_4035" fill="white">
<path fill-rule="evenodd" clip-rule="evenodd" d="M5.50732 15.475C5.50732 15.475 11.0073 9.51254 11.0073 6.47498C11.0073 3.43741 8.54489 0.974976 5.50732 0.974976C2.46976 0.974976 0.00732422 3.43741 0.00732422 6.47498C0.00732422 9.51254 5.50732 15.475 5.50732 15.475ZM5.50732 7.29271C6.09817 7.29271 6.57715 6.81373 6.57715 6.22288C6.57715 5.63203 6.09817 5.15306 5.50732 5.15306C4.91648 5.15306 4.4375 5.63203 4.4375 6.22288C4.4375 6.81373 4.91648 7.29271 5.50732 7.29271Z"/>
</mask>
<path d="M5.50732 15.475L4.77229 16.153L5.50732 16.9498L6.24236 16.153L5.50732 15.475ZM10.0073 6.47498C10.0073 6.98192 9.76105 7.74449 9.26178 8.69934C8.77892 9.62281 8.12382 10.6074 7.45163 11.5217C6.78212 12.4324 6.11038 13.2536 5.60485 13.8481C5.35254 14.1449 5.14271 14.3839 4.99668 14.548C4.92368 14.63 4.8667 14.6932 4.8284 14.7354C4.80925 14.7565 4.79477 14.7724 4.78531 14.7828C4.78058 14.7879 4.7771 14.7917 4.77491 14.7941C4.77382 14.7953 4.77305 14.7961 4.77261 14.7966C4.77239 14.7968 4.77226 14.797 4.7722 14.797C4.77217 14.7971 4.7722 14.797 4.77218 14.7971C4.77222 14.797 4.77229 14.7969 5.50732 15.475C6.24236 16.153 6.24247 16.1529 6.24259 16.1528C6.24266 16.1527 6.24281 16.1525 6.24295 16.1524C6.24323 16.1521 6.24359 16.1517 6.24404 16.1512C6.24493 16.1502 6.24616 16.1489 6.24771 16.1472C6.25081 16.1438 6.25522 16.139 6.2609 16.1328C6.27224 16.1204 6.28865 16.1024 6.30979 16.0791C6.35205 16.0325 6.41323 15.9647 6.49063 15.8777C6.64538 15.7038 6.86524 15.4533 7.12854 15.1436C7.65427 14.5253 8.35753 13.666 9.06302 12.7064C9.76583 11.7504 10.4857 10.6749 11.0341 9.62606C11.5661 8.60864 12.0073 7.48681 12.0073 6.47498H10.0073ZM5.50732 1.97498C7.99261 1.97498 10.0073 3.98969 10.0073 6.47498H12.0073C12.0073 2.88512 9.09718 -0.0250244 5.50732 -0.0250244V1.97498ZM1.00732 6.47498C1.00732 3.98969 3.02204 1.97498 5.50732 1.97498V-0.0250244C1.91747 -0.0250244 -0.992676 2.88512 -0.992676 6.47498H1.00732ZM5.50732 15.475C6.24236 14.7969 6.24242 14.797 6.24247 14.7971C6.24245 14.797 6.24247 14.7971 6.24245 14.797C6.24239 14.797 6.24225 14.7968 6.24203 14.7966C6.2416 14.7961 6.24083 14.7953 6.23974 14.7941C6.23755 14.7917 6.23407 14.7879 6.22934 14.7828C6.21988 14.7724 6.2054 14.7565 6.18625 14.7354C6.14795 14.6932 6.09097 14.63 6.01797 14.548C5.87194 14.3839 5.66211 14.1449 5.40979 13.8481C4.90427 13.2536 4.23253 12.4324 3.56302 11.5217C2.89083 10.6074 2.23573 9.62281 1.75287 8.69934C1.2536 7.74449 1.00732 6.98192 1.00732 6.47498H-0.992676C-0.992676 7.48681 -0.551453 8.60864 -0.0194728 9.62606C0.528918 10.6749 1.24882 11.7504 1.95163 12.7064C2.65712 13.666 3.36038 14.5253 3.8861 15.1436C4.14941 15.4533 4.36927 15.7038 4.52402 15.8777C4.60142 15.9647 4.6626 16.0325 4.70486 16.0791C4.72599 16.1024 4.7424 16.1204 4.75375 16.1328C4.75943 16.139 4.76384 16.1438 4.76694 16.1472C4.76849 16.1489 4.76972 16.1502 4.77061 16.1512C4.77106 16.1517 4.77142 16.1521 4.7717 16.1524C4.77184 16.1525 4.77199 16.1527 4.77206 16.1528C4.77218 16.1529 4.77229 16.153 5.50732 15.475ZM5.57715 6.22288C5.57715 6.26144 5.54589 6.29271 5.50732 6.29271V8.29271C6.65046 8.29271 7.57715 7.36601 7.57715 6.22288H5.57715ZM5.50732 6.15306C5.54589 6.15306 5.57715 6.18432 5.57715 6.22288H7.57715C7.57715 5.07975 6.65046 4.15306 5.50732 4.15306V6.15306ZM5.4375 6.22288C5.4375 6.18432 5.46876 6.15306 5.50732 6.15306V4.15306C4.36419 4.15306 3.4375 5.07975 3.4375 6.22288H5.4375ZM5.50732 6.29271C5.46876 6.29271 5.4375 6.26144 5.4375 6.22288H3.4375C3.4375 7.36601 4.36419 8.29271 5.50732 8.29271V6.29271Z" fill="#3A373E" mask="url(#path-1-inside-1_561_4035)"/>
<path d="M5.50732 15.475L4.77229 16.153L5.50732 16.9498L6.24236 16.153L5.50732 15.475ZM10.0073 6.47498C10.0073 6.98192 9.76105 7.74449 9.26178 8.69934C8.77892 9.62281 8.12382 10.6074 7.45163 11.5217C6.78212 12.4324 6.11038 13.2536 5.60485 13.8481C5.35254 14.1449 5.14271 14.3839 4.99668 14.548C4.92368 14.63 4.8667 14.6932 4.8284 14.7354C4.80925 14.7565 4.79477 14.7724 4.78531 14.7828C4.78058 14.7879 4.7771 14.7917 4.77491 14.7941C4.77382 14.7953 4.77305 14.7961 4.77261 14.7966C4.77239 14.7968 4.77226 14.797 4.7722 14.797C4.77217 14.7971 4.7722 14.797 4.77218 14.7971C4.77222 14.797 4.77229 14.7969 5.50732 15.475C6.24236 16.153 6.24247 16.1529 6.24259 16.1528C6.24266 16.1527 6.24281 16.1525 6.24295 16.1524C6.24323 16.1521 6.24359 16.1517 6.24404 16.1512C6.24493 16.1502 6.24616 16.1489 6.24771 16.1472C6.25081 16.1438 6.25522 16.139 6.2609 16.1328C6.27224 16.1204 6.28865 16.1024 6.30979 16.0791C6.35205 16.0325 6.41323 15.9647 6.49063 15.8777C6.64538 15.7038 6.86524 15.4533 7.12854 15.1436C7.65427 14.5253 8.35753 13.666 9.06302 12.7064C9.76583 11.7504 10.4857 10.6749 11.0341 9.62606C11.5661 8.60864 12.0073 7.48681 12.0073 6.47498H10.0073ZM5.50732 1.97498C7.99261 1.97498 10.0073 3.98969 10.0073 6.47498H12.0073C12.0073 2.88512 9.09718 -0.0250244 5.50732 -0.0250244V1.97498ZM1.00732 6.47498C1.00732 3.98969 3.02204 1.97498 5.50732 1.97498V-0.0250244C1.91747 -0.0250244 -0.992676 2.88512 -0.992676 6.47498H1.00732ZM5.50732 15.475C6.24236 14.7969 6.24242 14.797 6.24247 14.7971C6.24245 14.797 6.24247 14.7971 6.24245 14.797C6.24239 14.797 6.24225 14.7968 6.24203 14.7966C6.2416 14.7961 6.24083 14.7953 6.23974 14.7941C6.23755 14.7917 6.23407 14.7879 6.22934 14.7828C6.21988 14.7724 6.2054 14.7565 6.18625 14.7354C6.14795 14.6932 6.09097 14.63 6.01797 14.548C5.87194 14.3839 5.66211 14.1449 5.40979 13.8481C4.90427 13.2536 4.23253 12.4324 3.56302 11.5217C2.89083 10.6074 2.23573 9.62281 1.75287 8.69934C1.2536 7.74449 1.00732 6.98192 1.00732 6.47498H-0.992676C-0.992676 7.48681 -0.551453 8.60864 -0.0194728 9.62606C0.528918 10.6749 1.24882 11.7504 1.95163 12.7064C2.65712 13.666 3.36038 14.5253 3.8861 15.1436C4.14941 15.4533 4.36927 15.7038 4.52402 15.8777C4.60142 15.9647 4.6626 16.0325 4.70486 16.0791C4.72599 16.1024 4.7424 16.1204 4.75375 16.1328C4.75943 16.139 4.76384 16.1438 4.76694 16.1472C4.76849 16.1489 4.76972 16.1502 4.77061 16.1512C4.77106 16.1517 4.77142 16.1521 4.7717 16.1524C4.77184 16.1525 4.77199 16.1527 4.77206 16.1528C4.77218 16.1529 4.77229 16.153 5.50732 15.475ZM5.57715 6.22288C5.57715 6.26144 5.54589 6.29271 5.50732 6.29271V8.29271C6.65046 8.29271 7.57715 7.36601 7.57715 6.22288H5.57715ZM5.50732 6.15306C5.54589 6.15306 5.57715 6.18432 5.57715 6.22288H7.57715C7.57715 5.07975 6.65046 4.15306 5.50732 4.15306V6.15306ZM5.4375 6.22288C5.4375 6.18432 5.46876 6.15306 5.50732 6.15306V4.15306C4.36419 4.15306 3.4375 5.07975 3.4375 6.22288H5.4375ZM5.50732 6.29271C5.46876 6.29271 5.4375 6.26144 5.4375 6.22288H3.4375C3.4375 7.36601 4.36419 8.29271 5.50732 8.29271V6.29271Z" fill="white" fill-opacity="0.8" mask="url(#path-1-inside-1_561_4035)"/>
</g>
</svg>
