<svg width="8" height="9" viewBox="0 0 8 9" fill="none" xmlns="http://www.w3.org/2000/svg">
<path id="Union" fill-rule="evenodd" clip-rule="evenodd" d="M1.04845 3.59366C0.63424 3.59366 0.298453 3.92944 0.298453 4.34366C0.298453 4.75787 0.63424 5.09366 1.04845 5.09366L3.31228 5.09366L3.31228 7.35705C3.31228 7.77126 3.64807 8.10705 4.06228 8.10705C4.4765 8.10705 4.81228 7.77126 4.81228 7.35705L4.81228 5.09366L7.0751 5.09366C7.48932 5.09366 7.8251 4.75787 7.8251 4.34366C7.8251 3.92944 7.48932 3.59366 7.0751 3.59366L4.81228 3.59366L4.81228 1.3304C4.81228 0.916182 4.4765 0.580396 4.06228 0.580395C3.64807 0.580396 3.31228 0.916182 3.31228 1.3304L3.31228 3.59366L1.04845 3.59366Z" fill="#1A1323"/>
</svg>
