<svg width="45" height="45" viewBox="0 0 45 45" fill="none" xmlns="http://www.w3.org/2000/svg">
<circle cx="22.5" cy="22.5" r="22.5" fill="#FFE0EB"/>
<g clip-path="url(#clip0_438_844)">
<path d="M23.5862 23.5855V13C17.9161 13.2974 13.2981 17.9154 13.0007 23.5855H23.5862ZM21.2426 21.8278H20.0707V20.6559H21.2426V21.8278ZM17.7271 18.3123H18.8989V19.4841H17.7271V18.3123ZM20.6566 18.0697L21.4852 18.8982L18.313 22.0704L17.4845 21.2418L20.6566 18.0697Z" fill="#FF82AC"/>
<path d="M23.586 24.7568H16.5774C16.8629 28.4909 19.852 31.48 23.5861 31.7655V24.7568H23.586Z" fill="#FF82AC"/>
<path d="M24.7577 15.3438C24.7577 15.4696 24.7577 33.1376 24.7577 32.9993C29.3306 32.6956 32.9995 28.7616 32.9995 24.113C32.9995 19.464 29.3317 15.6464 24.7577 15.3438ZM28.2732 23.5856C29.2424 23.5856 30.0309 24.3741 30.0309 25.3433C30.0309 26.1062 29.5396 26.7505 28.8591 26.9932V28.2729H27.6872V26.9932C27.0067 26.7505 26.5154 26.1062 26.5154 25.3433H27.6872C27.6872 25.6666 27.9499 25.9293 28.2732 25.9293C28.5964 25.9293 28.8591 25.6666 28.8591 25.3433C28.8591 25.0201 28.5964 24.7574 28.2732 24.7574C27.3039 24.7574 26.5154 23.9689 26.5154 22.9997C26.5154 22.2368 27.0067 21.5926 27.6872 21.3499V20.0701H28.8591V21.3499C29.5396 21.5926 30.0309 22.2368 30.0309 22.9997H28.8591C28.8591 22.6764 28.5964 22.4138 28.2732 22.4138C27.9499 22.4138 27.6872 22.6764 27.6872 22.9997C27.6872 23.323 27.9499 23.5856 28.2732 23.5856Z" fill="#FF82AC"/>
</g>
<defs>
<clipPath id="clip0_438_844">
<rect width="20" height="20" fill="white" transform="translate(13 13)"/>
</clipPath>
</defs>
</svg>
