<svg width="45" height="45" viewBox="0 0 45 45" fill="none" xmlns="http://www.w3.org/2000/svg">
<circle cx="22.5" cy="22.5" r="22.5" fill="#DCFAF8"/>
<path d="M25.6633 17.9429H27.6323L27.5984 16.7435H25.934L27.4983 13.5105L25.7285 13.3624L24.1741 14.5539L24.6924 13.2065L22.8783 13L22.2833 14.6838L21.3056 13.3801L18.616 13.2868L20.3957 16.7441L18.7891 16.6924V17.9424H20.3373C17.0355 19.8749 14.6567 24.9263 14.6567 27.6551C14.6567 31.0758 18.3923 33 22.9998 33C27.6073 33 31.3429 31.0758 31.3429 27.6551C31.3434 24.9263 28.9651 19.8754 25.6633 17.9429ZM23.6975 29.2961V30.4803H22.5592V29.3774C21.7812 29.3435 21.0261 29.1329 20.585 28.8784L20.9333 27.5205C21.4209 27.788 22.1066 28.031 22.8611 28.031C23.5228 28.031 23.9759 27.7755 23.9759 27.3119C23.9759 26.8692 23.6047 26.5902 22.7453 26.3008C21.5022 25.8831 20.6549 25.3017 20.6549 24.1764C20.6549 23.1544 21.375 22.3523 22.6176 22.1093V21.0059H23.7559V22.028C24.5334 22.0635 25.0569 22.2246 25.4396 22.4108L25.1028 23.7233C24.8009 23.596 24.2664 23.328 23.4305 23.328C22.6755 23.328 22.4314 23.6529 22.4314 23.9777C22.4314 24.3615 22.8381 24.605 23.8252 24.9768C25.2065 25.466 25.7645 26.1032 25.7645 27.1492C25.765 28.1812 25.0329 29.064 23.6975 29.2961Z" fill="#16DBCC"/>
</svg>
