<svg width="19" height="16" viewBox="0 0 19 16" fill="none" xmlns="http://www.w3.org/2000/svg">
<path d="M6.6465 3.74023C6.64395 5.24867 5.3789 6.4695 3.82094 6.46703C2.26298 6.46456 1.00207 5.23972 1.00463 3.73128C1.00718 2.22284 2.27222 1.002 3.83018 1.00447C5.38814 1.00694 6.64905 2.23178 6.6465 3.74023Z" stroke="#343C6A" stroke-width="1.62965" stroke-linecap="round" stroke-linejoin="round"/>
<path d="M7.39214 4.15723L16.532 4.17172" stroke="#343C6A" stroke-width="1.87335" stroke-linecap="round" stroke-linejoin="round"/>
<path d="M11.5721 11.9326C11.5746 13.4411 12.8397 14.6619 14.3976 14.6594C15.9556 14.6569 17.2165 13.4321 17.2139 11.9237C17.2114 10.4152 15.9463 9.19439 14.3884 9.19686C12.8304 9.19933 11.5695 10.4242 11.5721 11.9326Z" stroke="#343C6A" stroke-width="1.62965" stroke-linecap="round" stroke-linejoin="round"/>
<path d="M10.842 12.345L1.70419 12.3444" stroke="#343C6A" stroke-width="1.87335" stroke-linecap="round" stroke-linejoin="round"/>
</svg>
