<svg width="20" height="20" viewBox="0 0 20 20" fill="none" xmlns="http://www.w3.org/2000/svg">
<circle cx="10" cy="10" r="10" fill="#E7EDFF"/>
<path d="M11.2408 10.0166C12.4534 10.0166 13.4397 8.89136 13.4397 7.50829C13.4397 6.12523 12.4534 5 11.2408 5C10.0283 5 9.04179 6.12523 9.04179 7.50829C9.04179 8.89136 10.0283 10.0166 11.2408 10.0166ZM10.9804 6.03393V5.96581C10.9804 5.80164 11.0969 5.66876 11.2408 5.66876C11.3846 5.66876 11.5012 5.80164 11.5012 5.96581V6.03433C11.8111 6.11018 12.0443 6.42505 12.0443 6.80092C12.0443 6.96489 11.9276 7.09797 11.7839 7.09797C11.64 7.09797 11.5235 6.96489 11.5235 6.80092C11.5235 6.69616 11.4486 6.6108 11.3568 6.6108H11.1233C11.0314 6.6108 10.9566 6.69616 10.9566 6.80092C10.9566 6.86092 10.9818 6.91795 11.0241 6.9536L11.2408 7.13658L11.7672 7.58097C11.9401 7.72692 12.0443 7.9604 12.0457 8.20596V8.20873C12.0469 8.41825 11.9766 8.61589 11.8474 8.76501C11.7516 8.87571 11.6318 8.94997 11.5012 8.98126V9.05077C11.5012 9.21494 11.3846 9.34782 11.2408 9.34782C11.0969 9.34782 10.9804 9.21494 10.9804 9.05077V8.98225C10.8533 8.95136 10.7365 8.88007 10.642 8.77353C10.5113 8.62639 10.4387 8.42994 10.4377 8.22042C10.4368 8.05645 10.5526 7.92258 10.6964 7.92159H10.6981C10.8412 7.92159 10.9576 8.05348 10.9585 8.21685C10.9589 8.31938 11.0312 8.40578 11.1261 8.40578C11.2699 8.40479 11.2164 8.40514 11.3592 8.40419C11.4517 8.40336 11.5256 8.31779 11.5249 8.2127V8.20992C11.5245 8.15051 11.4993 8.09388 11.4573 8.05843L11.2408 7.87564L10.7142 7.43126C10.5399 7.28392 10.4358 7.04826 10.4358 6.80092C10.4358 6.42426 10.6696 6.10918 10.9804 6.03393Z" fill="#396AFF"/>
<path d="M7.67782 11.4441C7.61107 11.3121 7.46278 11.2662 7.34634 11.3428L6.12134 12.1494C6.00534 12.226 5.96555 12.3952 6.03252 12.5277L7.28453 15.0011C7.35155 15.1334 7.49981 15.1788 7.61602 15.1025L8.84102 14.2957C8.95718 14.2193 8.99682 14.05 8.92984 13.9176L7.67782 11.4441Z" fill="#396AFF"/>
<path d="M14.6969 10.9503C14.5791 10.7636 14.3509 10.7214 14.1874 10.8559C13.6912 11.2636 12.7384 12.0466 12.6627 12.109C12.6278 12.1429 12.5912 12.1736 12.553 12.2007C12.4031 12.3083 12.2293 12.3657 12.0479 12.3657H10.8005C10.6567 12.3657 10.5401 12.2328 10.5401 12.0686C10.5401 11.9043 10.6569 11.7716 10.8005 11.7716H12.1345C12.3306 11.7716 12.4875 11.5854 12.4794 11.3615C12.4717 11.149 12.3127 10.9842 12.1262 10.9842H11.1107C11.042 10.9012 10.9666 10.8252 10.8859 10.7573C10.6083 10.5238 10.2652 10.3857 9.89386 10.3857C9.2336 10.3857 8.57663 10.8602 8.30423 11.4935L9.36954 13.598H11.3679C11.7602 13.598 12.1467 13.4836 12.4868 13.2604C12.6047 13.1832 12.7309 13.0903 12.8677 12.9782C13.441 12.5085 14.6131 11.5326 14.614 11.532C14.7779 11.3977 14.815 11.1371 14.6969 10.9503Z" fill="#396AFF"/>
</svg>
