<svg width="20" height="20" viewBox="0 0 20 20" fill="none" xmlns="http://www.w3.org/2000/svg">
<circle cx="10" cy="10" r="10" fill="#FFF5D9"/>
<g clip-path="url(#clip0_438_780)">
<path d="M8.73778 7.44499H11.7067L12.3474 6.93239C12.5656 6.75832 12.647 6.47573 12.5548 6.21202C12.4626 5.94832 12.223 5.77832 11.9444 5.77832H8.5C8.22149 5.77832 7.98186 5.94869 7.88963 6.21202C7.79741 6.47536 7.87889 6.75832 8.09667 6.93202L8.73778 7.44499Z" fill="#FFBB38"/>
<path d="M11.7574 8.00098H8.68703C7.67555 8.99394 6.88889 10.7362 6.88889 12.1676C6.88889 13.4117 7.5474 14.6676 9.01852 14.6676H11.5185C12.7752 14.6676 13.5556 13.7095 13.5556 12.1676C13.5556 10.7362 12.7689 8.99394 11.7574 8.00098ZM10.0815 11.0565H10.363C10.7959 11.0565 11.1481 11.4088 11.1481 11.8417C11.1481 12.231 10.8674 12.5513 10.5 12.6165V12.908C10.5 13.0613 10.3756 13.1858 10.2222 13.1858C10.0689 13.1858 9.94444 13.0613 9.94444 12.908V12.6306H9.57407C9.42074 12.6306 9.29629 12.5062 9.29629 12.3528C9.29629 12.1995 9.42074 12.0751 9.57407 12.0751H10.363C10.4896 12.0751 10.5926 11.9721 10.5926 11.8454C10.5926 11.7151 10.4896 11.6121 10.363 11.6121H10.0815C9.64851 11.6121 9.29629 11.2599 9.29629 10.8269C9.29629 10.4376 9.57703 10.1173 9.94444 10.0521V9.76024C9.94444 9.6069 10.0689 9.48246 10.2222 9.48246C10.3756 9.48246 10.5 9.6069 10.5 9.76024V10.038H10.8704C11.0237 10.038 11.1481 10.1625 11.1481 10.3158C11.1481 10.4691 11.0237 10.5936 10.8704 10.5936H10.0815C9.95481 10.5936 9.85185 10.6965 9.85185 10.8232C9.85185 10.9536 9.95481 11.0565 10.0815 11.0565Z" fill="#FFBB38"/>
</g>
<defs>
<clipPath id="clip0_438_780">
<rect width="8.88889" height="8.88889" fill="white" transform="translate(5.77778 5.77832)"/>
</clipPath>
</defs>
</svg>
